# xmcd
#
# Track frame offsets:
#	150
#	13763
#	27058
#	42740
#	64376
#
# Disc length: 1068 seconds
#
# Revision: 1
# Processed by: cddbd v1.5.1PL0 Copyright (c) Steve Scherf et al.
# Submitted via: EasyCDDAExtractor 6.5.9.5
#
DISCID=40042a05
DTITLE=Ray Scott
DYEAR=2005
DGENRE=Country
TTITLE0=My Kind Of Music
TTITLE1=You're Gone Either Way
TTITLE2=A Different Kind Of Cowboy
TTITLE3=Gypsy
TTITLE4=Makin' My Way
EXTD=
EXTT0=
EXTT1=
EXTT2=
EXTT3=
EXTT4=
PLAYORDER=
